<?xml version="1.0" encoding="utf-8"?>
<!-- Generator: Adobe Illustrator 16.0.0, SVG Export Plug-In . SVG Version: 6.00 Build 0)  -->
<!DOCTYPE svg PUBLIC "-//W3C//DTD SVG 1.1//EN" "http://www.w3.org/Graphics/SVG/1.1/DTD/svg11.dtd">
<svg version="1.1" id="Layer_1" xmlns="http://www.w3.org/2000/svg" xmlns:xlink="http://www.w3.org/1999/xlink" x="0px" y="0px"
	 width="438.469px" height="318.061px" viewBox="0 0 438.469 318.061" enable-background="new 0 0 438.469 318.061"
	 xml:space="preserve">
<g opacity="0.8">
	<path fill="#1B2F42" d="M226.398,318.061c-15.127,0.002-30.529-4.134-47.086-12.638c-2.561-1.315-4.871-1.929-7.271-1.929
		c-1.379,0-2.865,0.2-4.543,0.61c-9.834,2.415-18.457,3.59-26.359,3.59c-14.365,0-26.67-3.878-37.619-11.854
		c-2.623-1.91-4.9-4.434-7.102-6.874c-2.964-3.284-5.763-6.386-9.34-8.146c-3.164-1.561-7.082-1.792-10.871-2.016
		c-3.75-0.222-7.625-0.451-10.887-1.944c-13.342-6.118-26.482-13.273-39.19-20.194c-2.58-1.405-5.158-2.81-7.737-4.205
		C4.988,245.205,1.074,230.889,0.15,220.156c-0.762-8.844-0.163-17.764,0.635-27.671l0.053-0.656
		c0.945-11.735,1.922-23.871,4.146-35.583c3.047-16.054,11.687-28.954,25.678-38.341c1.871-1.253,3.605-3.897,4.035-6.151
		c2.729-14.38,8.975-25.939,19.1-35.342c1.506-1.4,2.826-3.172,3.716-4.987c4.87-9.921,12.085-18.104,22.06-25.019
		c2.207-1.528,4.072-3.661,5.875-5.723c1.11-1.271,2.259-2.584,3.487-3.762c17.978-17.23,39.851-25.967,65.009-25.967
		c3.137,0,6.375,0.136,9.627,0.402c0.555,0.047,1.129,0.073,1.709,0.073c1.949,0,3.584-0.296,4.859-0.881
		C185.434,3.549,200.35,0,214.473,0c15.609,0,30.914,4.331,45.486,12.871c2.441,1.43,5.674,1.729,7.955,1.729
		c0.361,0,0.719-0.008,1.068-0.022c1.652-0.066,3.311-0.101,4.934-0.101c17.584,0,33.307,3.812,48.068,11.653
		c2.055,1.087,4.867,1.711,7.717,1.711c0.459,0,0.912-0.016,1.355-0.047c1.24-0.09,2.496-0.137,3.732-0.137
		c11.164,0,21.891,3.479,34.779,11.283l0.139,0.084c1.496,0.908,3.193,1.938,4.814,2.059c20.41,1.506,40.068,20.112,45.725,43.281
		c0.787,3.229,2.697,6.703,5.238,9.536c10.076,11.226,12.084,25.187,12.752,38.601c0.045,0.89,0.033,1.795,0.021,2.668
		c-0.006,0.407-0.012,0.814-0.012,1.221c-0.377,19.937-4.424,37.309-12.375,53.116c-0.902,1.793-1.164,4.374-0.637,6.276
		c8.924,32.133-3.621,58.693-34.416,72.872c-11.094,5.106-22.801,7.654-35.793,7.789c-2.182,0.024-4.527,1.272-6.551,2.44
		c-3.146,1.811-6.297,3.739-9.346,5.604c-3.209,1.963-6.527,3.993-9.848,5.894c-1.887,1.079-3.9,2.018-5.848,2.926
		c-3.006,1.401-6.113,2.851-8.742,4.82c-15.326,11.478-29.008,16.824-43.057,16.824c-4.729,0-9.578-0.629-14.41-1.87
		c-0.305-0.078-0.65-0.118-1.025-0.118c-0.857,0-1.9,0.207-3.102,0.615C244.346,316.554,235.363,318.061,226.398,318.061z
		 M162.107,259.284c5.955,23.508,32.352,41.233,61.396,41.233c8.992,0,17.695-1.799,25.197-5.204l-3.809-8.26l0.607-0.362
		c5.355,7.095,12.459,10.4,22.355,10.4c1.102,0,2.266-0.042,3.457-0.124c12.557-0.867,22.975-6.902,30.648-12.064
		c4.953-3.335,12.471-8.067,20.508-10.636c10.541-3.366,16.307-9.674,18.15-19.85c0.346-1.914,1.938-4.119,3.549-4.913
		c17.557-8.67,23.516-23.415,17.242-42.648l-14.697-1.488l-0.023-0.704l27.289-4.607l0.236,0.658l-8.787,5.034l2.252,13.526
		c2.975,1.232,8.779,3.633,8.779,3.633l-0.482,1.4l-0.295-0.248h-8.25c-3.781,14-7.34,19.912-19.785,28.111
		c-1.301,0.855-2.203,2.611-3.074,4.151c-0.377,0.665-0.766,1.432-1.188,2.065l1.057,1.628c1.822,0.002,3.65,0.062,5.479,0.101
		c1.887,0.041,3.771,0.09,5.654,0.09c2.508,0,4.58-0.066,6.527-0.221c16.846-1.342,30.693-8.578,38.99-20.379
		c7.881-11.207,9.984-25.594,5.928-40.51c-0.262-0.955-0.91-1.852-1.73-2.989c-0.459-0.636-0.98-1.357-1.523-2.213l-0.123-0.191
		l0.293-0.444c0.367-0.55,1.23-1.839,2.002-3.174c13.73-23.82,18.586-46.153,14.838-68.274c-0.883-5.195-4.502-10.281-7.695-14.768
		l-0.436-0.614c-0.957-1.343-2.258-2.211-3.314-2.211c-1.391,0-2.422,1.429-2.982,4.133l-0.701-0.092
		c0.713-12.566-1.461-22.581-6.844-31.515c-5.297-8.805-12.035-14.03-20.598-15.975c-0.549-0.124-1.156-0.185-1.859-0.185
		c-0.912,0-1.893,0.097-3.029,0.209c-1.021,0.101-2.18,0.215-3.475,0.272l-0.182,0.009l-0.113-0.144
		c-7.574-9.592-19.307-14.89-33.93-15.318c-5.668-0.168-11.752-0.738-17.846-3.75c-5.463-2.695-11.256-4.693-16.703-6.451
		c-8.484-2.737-16.816-4.125-24.768-4.125c-12.252,0-23.871,3.288-34.535,9.771c-10.771,6.547-20.758,14.942-29.947,23.041
		c-7.697,6.782-16.475,13.19-28.473,14.139c-12.027,0.952-20.051,6.481-24.529,16.902l-0.289,0.673l-1.977-3.638
		c-10.557,5.84-18.658,14.587-26.23,28.309c-2.525,4.578-6.5,11.018-11.825,14.081c-22.193,12.769-32.896,39.203-25.449,62.858
		c2.605,8.281,7.561,13.441,15.596,16.234c5.779,2.011,11.862,4.248,17.12,7.512c6.857,4.256,13.531,6.414,19.84,6.414
		c9.537,0,18.455-4.918,26.508-14.614l0.604,0.359c-0.406,1.006-0.699,1.8-0.938,2.451c-0.404,1.095-0.67,1.514-1.088,2.147
		c-5.879,8.914-14.582,13.133-25.867,13.133c-0.002,0-0.004,0-0.006,0c-0.508,0-1.016,0.294-1.531,0.277
		c-0.215-0.01-0.428,0.14-0.637,0.14c-4.6,0-7.836,1.898-10.824,6.169c-0.891,1.267-1.67,2.69-2.424,4.031
		c-0.352,0.627-0.705,1.273-1.068,1.89l-0.166,0.29l-2.047-0.966l6.146-13.439l-32.352-17.884l-2.053,1.117
		c-0.102,3.502-0.316,7.065-0.525,10.514c-0.459,7.621-0.935,15.503-0.219,23.128c3.908,41.721,36.785,44.963,46.77,44.963
		c9.533,0,19.23-2.352,27.355-6.625l-12.535-18.56c-10.881,7.966-16.889,10.798-22.871,10.798c-1.424,0-2.869-0.167-4.42-0.509
		l-1.098-0.243l1.039-0.433c1.488-0.619,3.023-1.212,4.58-1.813c3.625-1.399,7.375-2.849,10.842-4.762
		c3.586-1.978,6.998-4.458,10.299-6.857c1.482-1.078,2.971-2.159,4.484-3.206L162.107,259.284z M51.898,249.512
		c7.313,8.256,16.44,12.205,27.899,12.205h0.001c3.652,0,7.518-0.324,11.803-1.127c-0.08-0.58-0.143-1.064-0.201-1.535
		c-0.126-1.035-0.227-1.838-0.408-2.621c-3.27-14.037-3.334-27.259-0.199-40.441c0.807-3.396,0.4-7.797-1.037-11.215
		c-10.25-24.48-7.541-57.956,22.633-73.611c3.983-2.065,7.015-6.274,9.945-10.348c0.979-1.356,1.988-2.76,3.012-4.05
		c2.283-2.876,4.473-5.926,6.592-8.876c3.906-5.441,7.947-11.068,12.725-15.82c4.453-4.43,5.729-8.048,4.709-13.348l0.68-0.192
		l2.725,7.255c0.797-0.486,1.594-0.927,2.369-1.354c1.842-1.016,3.58-1.976,4.852-3.325c5.234-5.563,11.445-8.528,18.986-9.064
		c19.98-1.421,32.225-11.922,37.43-32.105l0.693,0.023l0.744,3.957l36.918-16.244c-13.002-7.97-26.393-12.01-39.813-12.01
		c-12.246,0-24.615,3.377-36.764,10.036c-5.682,3.115-10.846,7.302-16.311,11.732c-2.496,2.021-5.072,4.109-7.809,6.188l6.086,3.475
		l-1.266,0.899l-12.484-3.479l21.688-17.396c-0.322-0.126-0.605-0.245-0.861-0.354c-0.676-0.285-1.121-0.472-1.549-0.488
		c-1.322-0.046-2.637-0.068-3.943-0.068c-24.168,0-45.207,8.047-62.528,23.919c-0.771,0.707-1.531,1.431-2.292,2.155
		c-2.064,1.966-4.201,4.099-6.555,5.769c-7.256,5.152-12.664,11.007-16.081,20.007h29.384c1.984-9,4.291-17.548,12.561-22.967
		l0.918-0.65l-2.659,6.958c-1.94,5.103-3.888,10.211-5.87,15.316c-1.125,2.897-0.486,4.77,2.441,7.168
		c7.872,6.441,11.016,15.107,9.342,25.764c-1.585,10.086-9.352,18.174-18.067,18.817l-0.2-0.664
		c0.471-0.265,0.889-0.506,1.271-0.729c0.719-0.418,1.32-0.769,1.943-1.076c8.918-4.389,12.764-11.976,12.107-23.874
		c-0.465-8.405-5.184-14.418-14.428-18.384c-3.995-1.713-8.294-2.582-12.775-2.582c-18.25,0-35.354,14.378-38.129,32.051
		c-1.344,8.579-0.363,10.007,8.068,11.741c0.805,0.166,1.602,0.361,2.479,0.576c0.359,0.088,0.732,0.179,1.126,0.272
		c4.416-10.788,10.85-16.669,20.223-18.497l0.264,0.646c-11.596,7.702-17.426,19.721-21.98,30.383l-0.68-0.163l0.488-7.555
		c-2.797-0.785-5.543-1.183-8.17-1.183c-7.312,0-13.893,3.03-19.561,9.004c-15.293,16.125-19.031,32.804-11.43,50.99
		c1.271,3.04,2.063,6.325,2.83,9.503c0.356,1.48,0.713,2.962,1.117,4.422l0.1,0.359l-1.721,0.378l-6.395-19.903
		c-4.48,12.271-5.242,23.84-2.48,37.354c1.729,8.453,6.527,14.959,14.67,19.891c4.785,2.897,9.463,4.365,13.904,4.365
		c4.538,0,8.611-1.531,12.105-4.55c7.912-6.838,13.063-20.555,7.801-29.307c-2.518-4.189-4.508-8.757-6.434-13.173
		c-3.42-7.844-6.957-15.954-13.549-22.127c-1.064-0.994-1.748-2.306-2.693-4.12c-0.509-0.974-1.084-2.078-1.828-3.337l0.527-0.458
		l19.699,15.788l-7.449-0.504c1.212,2.104,2.342,4.115,3.43,6.051c2.43,4.321,4.723,8.403,7.229,12.246
		c5.853,8.98,7.864,18.021,5.817,26.141c-2.042,8.102-8.077,15.086-17.451,20.2c-0.05,0.049-0.12,0.294-0.167,0.477
		C51.98,249.256,51.944,249.365,51.898,249.512z"/>
	<path fill="#1B2F42" d="M437.891,136.391c-0.35,18.525-3.947,36.274-12.336,52.956c-0.932,1.849-1.213,4.547-0.662,6.532
		c8.893,32.025-3.428,58.275-34.223,72.453c-11.309,5.207-23.197,7.629-35.648,7.757c-2.262,0.025-4.666,1.301-6.725,2.488
		c-6.463,3.721-12.723,7.795-19.191,11.496c-4.795,2.743-10.264,4.501-14.627,7.771c-17.104,12.81-35.324,20.505-57.166,14.894
		c-1.318-0.337-2.971,0.044-4.328,0.506c-25.781,8.761-50.129,3.874-73.51-8.136c-4.221-2.17-7.65-2.428-12.061-1.348
		c-22.238,5.461-44.104,6.059-63.686-8.207c-6.003-4.372-10.088-11.898-16.494-15.053c-6.357-3.135-15.264-0.985-21.767-3.963
		c-15.995-7.335-31.423-16.012-46.907-24.39c-11.757-6.364-16.925-18.87-18.057-32.021c-0.785-9.126-0.104-18.44,0.636-27.612
		c0.975-12.106,1.933-24.294,4.193-36.202c3.05-16.072,11.741-28.863,25.526-38.112c1.977-1.323,3.741-4.042,4.188-6.381
		c2.615-13.79,8.67-25.563,18.991-35.146c1.53-1.423,2.876-3.221,3.794-5.093c5.061-10.31,12.516-18.348,21.942-24.881
		c3.604-2.497,6.181-6.43,9.405-9.521c20.84-19.973,45.844-27.807,74.361-25.466c2.227,0.185,4.771,0.065,6.744-0.84
		c30.238-13.838,60.027-14.965,89.494,2.306c2.559,1.498,6.148,1.882,9.219,1.756c18.639-0.754,36.244,2.706,52.82,11.51
		c2.664,1.412,6.211,1.926,9.264,1.705c14.205-1.029,26.521,3.964,38.303,11.097c1.578,0.957,3.354,2.063,5.109,2.192
		c19.324,1.426,39.473,18.705,45.408,43.013c0.848,3.474,2.908,7.002,5.316,9.688c9.889,11.016,11.969,24.433,12.662,38.381
		C437.945,133.804,437.891,135.099,437.891,136.391z M369.826,60.712c-8.119-10.284-20.293-15.045-34.199-15.453
		c-6.244-0.186-12.01-0.902-17.697-3.714c-5.352-2.64-11.064-4.635-16.754-6.471c-20.65-6.663-40.961-5.648-59.596,5.681
		c-10.725,6.52-20.539,14.744-29.996,23.078c-8.322,7.334-16.955,13.157-28.266,14.051c-11.445,0.906-20.059,6.018-24.828,17.117
		c-0.699-1.289-1.213-2.229-1.799-3.309c-12.328,6.724-20.195,16.867-26.682,28.621c-2.904,5.261-6.727,11.089-11.691,13.944
		c-22.212,12.779-33.229,39.08-25.611,63.272c2.59,8.231,7.61,13.609,15.817,16.464c5.854,2.037,11.823,4.233,17.052,7.478
		c17.055,10.586,32.949,8.413,46.807-8.275c-1.092,2.697-1.361,3.884-1.99,4.839c-6.416,9.728-15.967,13.65-27.096,13.25
		c-5.625-0.201-8.934,2.187-11.766,6.233c-1.311,1.864-2.348,3.92-3.508,5.888c-0.48-0.229-0.957-0.455-1.438-0.682
		c1.963-4.283,3.922-8.572,6.139-13.422c-10.635-5.878-21.723-12.009-32.812-18.139c-0.803,0.438-1.601,0.872-2.402,1.307
		c-0.317,11.304-1.798,22.715-0.749,33.889c4.486,47.879,49.213,52.248,74.992,38.434c-4.309-6.379-8.637-12.794-12.961-19.193
		c-13.256,9.739-19.621,12.143-27.303,10.447c4.98-2.073,10.488-3.849,15.459-6.593c5.188-2.861,9.857-6.655,14.814-10.083
		c8.584,33.883,55.293,50.962,87.41,36.117c-1.314-2.853-2.639-5.717-3.957-8.582c6.805,9.017,15.938,11.117,26.119,10.415
		c11.514-0.794,21.35-5.751,30.822-12.123c6.34-4.268,13.205-8.287,20.418-10.592c10.43-3.331,16.461-9.459,18.393-20.125
		c0.313-1.731,1.809-3.896,3.355-4.659c17.811-8.794,23.844-23.646,17.352-43.296c-4.938-0.502-9.879-0.998-14.928-1.513
		c9.008-1.519,17.633-2.978,27.291-4.607c-3.586,2.055-6.307,3.613-9.002,5.158c0.82,4.927,1.592,9.558,2.324,13.965
		c3.043,1.261,5.854,2.424,8.668,3.586c-0.117,0.417-0.232,0.834-0.348,1.25c-2.885,0-5.77,0-8.525,0
		c-3.857,15.019-7.422,19.747-19.705,27.839c-2.006,1.317-3.02,4.136-4.494,6.263c0.432,0.648,0.863,1.298,1.293,1.943
		c5.963,0,11.955,0.406,17.879-0.065c34.203-2.725,53.896-29.494,45.232-61.341c-0.428-1.57-1.766-2.892-3.297-5.3
		c0.162-0.252,1.236-1.81,2.18-3.441c12.254-21.255,19.059-43.859,14.881-68.511c-0.936-5.512-4.809-10.766-8.191-15.529
		c-1.814-2.55-5.588-4.431-6.934,2.056c0.668-11.756-1.152-22.191-6.893-31.718c-4.846-8.052-11.447-14.009-20.822-16.138
		C376.045,59.918,373.547,60.547,369.826,60.712z M91.999,260.941c-0.291-2.066-0.375-3.344-0.661-4.572
		c-3.124-13.415-3.416-26.763-0.199-40.286c0.845-3.56,0.375-8.035-1.055-11.438c-10.678-25.499-6.848-57.95,22.469-73.16
		c5.414-2.809,9.006-9.373,13.07-14.494c6.5-8.187,11.947-17.364,19.291-24.666c4.412-4.391,5.887-8.052,4.805-13.667
		c0.877,2.337,1.752,4.671,2.877,7.66c2.822-1.78,5.727-2.915,7.658-4.967c5.162-5.485,11.387-8.429,18.754-8.954
		c20.332-1.445,32.584-12.342,37.75-32.37c0.432,2.303,0.771,4.103,0.826,4.396c12.805-5.634,25.563-11.248,37.945-16.696
		c-24.555-15.283-50.908-16.92-77.508-2.337c-8.432,4.622-15.629,11.511-24.592,18.273c3.229,1.845,4.65,2.652,6.068,3.464
		c-0.227,0.159-0.451,0.322-0.674,0.48c-4.561-1.268-9.123-2.541-11.654-3.247c6.402-5.139,13.756-11.03,21.633-17.353
		c-1.561-0.56-2.328-1.055-3.105-1.083c-25.414-0.88-47.829,6.631-66.724,23.944c-2.894,2.652-5.629,5.538-8.812,7.797
		c-7.696,5.465-13.104,12.518-16.409,20.553c10.16,0,20.022,0,30.196,0c2.082-8.622,4.395-17.631,12.477-22.926
		c-2.695,7.064-5.383,14.189-8.138,21.285c-1.281,3.3-0.24,5.293,2.548,7.577c7.989,6.537,10.802,15.334,9.216,25.437
		c-1.542,9.811-9.225,17.893-17.743,18.521c1.348-0.759,2.25-1.327,3.198-1.796c10.155-4.998,12.88-13.794,12.304-24.212
		c-0.529-9.597-6.396-15.154-14.642-18.689c-21.05-9.031-47.737,6.44-51.394,29.738c-1.377,8.787-0.289,10.367,8.346,12.145
		c1.214,0.249,2.409,0.567,3.892,0.917c3.833-9.513,9.698-16.541,20.077-18.563c-11.186,7.43-17.02,18.621-22.111,30.539
		c0.163-2.506,0.322-5.014,0.508-7.842c-11.261-3.255-20.792-0.139-28.361,7.842c-13.921,14.678-19.828,31.445-11.499,51.369
		c1.841,4.406,2.649,9.247,3.933,13.884c-0.346,0.077-0.692,0.155-1.039,0.229c-2.043-6.356-4.085-12.711-6.61-20.574
		c-5.231,13.779-5.413,25.983-2.853,38.51c1.871,9.149,7.158,15.476,14.834,20.124c9.904,5.994,19.397,5.852,26.426-0.221
		c8.328-7.197,13.075-21.105,7.873-29.758c-6.986-11.627-9.683-25.674-20.045-35.376c-1.584-1.48-2.355-3.823-4.458-7.379
		c7.22,5.788,12.917,10.353,18.817,15.08c-1.868-0.125-3.596-0.241-6.986-0.472c4.123,7.126,7.283,13.187,11.001,18.889
		c11.776,18.07,7.481,35.478-11.506,45.836c-0.273,0.147-0.3,0.74-0.517,1.325C62.33,262.002,76.078,263.981,91.999,260.941z"/>
	<path fill="#1B2F42" d="M228.727,125.561c-1.734,15.166-7.986,20.397-22.734,19.387c-1.504-0.102-3-0.293-4.504-0.395
		c-11.559-0.771-15.625,1.797-19.137,12.766c-1.857,5.796-4.287,10.834-11.061,12.841c0.457,1.359,0.834,2.506,1.225,3.647
		c4.652,13.613-2.543,23.4-16.914,23.988c-8.123,0.332-14.23-3.889-20.996-6.804c29.111,5.293,36.326,0.985,34.533-21.833
		c8.293-2.067,10.676-9.172,12.328-16.716c1.613-7.358,6.285-11.035,13.613-11.435c4.725-0.253,9.461-0.207,14.195-0.322
		c12.656-0.304,18.564-8.218,14.227-20.197c-1.748-4.829-5.586-8.902-8.189-14.006c3.424,3.549,7.432,6.721,10.088,10.773
		c2.084,3.186,3.902,3.887,7.295,3.031c11.041-2.788,15.797-11.452,12.531-23.188C253.184,107.635,245.449,121.207,228.727,125.561z
		"/>
	<path fill="#1B2F42" d="M243.465,158.055c2.359,0.824,2.916,1.049,3.488,1.21c3.596,1.015,5.607,6.435,10.742,3.366
		c5.65-3.377,10.037-7.637,10.955-14.311c0.547-3.991,0.098-8.118,0.098-10.29c2.35-1.937,3.699-2.706,4.588-3.838
		c4.109-5.224,7.467-11.207,12.24-15.696c10.941-10.291,26.59-5.797,31.252,8.563c1.191,3.667,1.826,7.516,2.699,11.285
		c1.385,5.988,3.129,11.712,9.979,13.92c-7.141,0.683-10.34-4.024-12.555-9.394c-1.709-4.147-2.354-8.72-3.797-12.991
		c-4.607-13.605-16.572-17.1-27.279-7.534c-7.553,6.752-14.055,14.263-14.305,25.594c-0.207,9.238-7.324,14.031-14.338,17.887
		c2.414,5.146,5.516,9.742,6.662,14.78c1.156,5.089,1.488,10.928,0.119,15.863c-1.355,4.88-4.463,10.055-8.332,13.248
		c-3.877,3.198-9.508,4.853-14.631,5.8c-4.529,0.838-9.414-0.23-14.143-0.454c-0.066,0.619-0.133,1.241-0.195,1.856
		c-0.666-1.93-1.326-3.861-2.115-6.158c3.771,0.951,7.158,2.154,10.648,2.632c17.252,2.355,31.08-14.063,26.373-31.158
		C259.27,173.724,255.09,167.994,243.465,158.055z"/>
	<path fill="#1B2F42" d="M311.068,240.827c10.443-12.76,8.723-24.866-4.373-30.708c-7.15-3.186-12.883-1.963-17.77,4.213
		c-4.668,5.897-8.824,12.209-13.609,18.003c-5.828,7.048-12.852,11.993-22.77,11.157c-1.434-0.122-3.244,1.418-4.504,2.59
		c-3.449,3.204-6.346,7.103-10.09,9.877c-11.379,8.426-22.236,6.924-31.895-4.314c13.682,9.644,26.09,5.68,36.852-4.291
		c4.648-4.303,8.482-7.521,15.209-8.123c8.115-0.727,13.588-6.808,18.338-13.163c3.986-5.326,7.605-11.063,12.293-15.692
		c7.514-7.423,22.432-6.114,29.025,1.846c6.525,7.87,4.867,21.061-3.58,27.637c-0.809,0.626-2.188,0.52-3.303,0.754L311.068,240.827
		z"/>
	<path fill="#1B2F42" d="M249.029,60.884c13.67-10.306,28.318-7.085,39.355,8.64C318.693,52.324,336.084,76.07,334,98.666
		c-0.893-4.252-1.666-7.998-2.465-11.736c-4.08-19.049-25.586-23.507-40.74-13.038c-3.344,2.307-4.049,12.285-1.365,15.255
		c5.014,5.547,6.674,12.189,6.836,19.522c-3.547-6.476-6.977-12.731-10.615-19.359c-2.006,1.519-3.156,2.389-3.885,2.936
		C289.141,63.325,276.939,54.494,249.029,60.884z"/>
	<path fill="#1B2F42" d="M356.504,123.869c5.039-2.434,9.377-4.525,13.717-6.615c0.201,0.278,0.4,0.559,0.605,0.842
		c-2.713,2.108-5.42,4.219-8.559,6.66c8.064,7.024,14.746,15.308,14.402,26.606c-0.137,4.607-2.037,9.853-4.793,13.583
		c-11.146,15.089-26.105,20.313-41.236,13.867c21.152,3.179,32.973-6.964,39.563-23.518
		C375.719,141.432,367.213,132.094,356.504,123.869z"/>
	<path fill="#1B2F42" d="M141.938,141.229c2.992-23.147,11.73-30.412,32.301-27.526c-20.805,3.866-24.838,8.171-29.604,31.378
		c-5.252-1.155-10.523-2.316-17.516-3.852C132.953,141.229,137.262,141.229,141.938,141.229z"/>
	<path fill="#1B2F42" d="M310.895,240.609c0.234,8.273-0.279,16.268-6.719,20.7c0.996-8.018,2.123-17.034,3.248-26.05
		c-0.543-0.13-1.088-0.263-1.635-0.393c1.768,1.994,3.533,3.986,5.291,5.969C311.068,240.827,310.895,240.609,310.895,240.609z"/>
	<path fill="#1B2F42" d="M191.504,199.668c9.596-21.195,20.189-26.797,34.723-18.421c-7.107-1.729-14.564-3.896-20.533,1.864
		C200.6,188.023,196.406,193.869,191.504,199.668z"/>
	<path fill="#1B2F42" d="M298.701,163.745c-0.049,10.571,11.139,4.134,13.777,9.692c-3.848-0.574-8.438-1.256-12.775-1.899
		c-3.15,4.144-6.084,8.005-9.018,11.862c-0.326-0.271-0.65-0.539-0.979-0.806C292.668,176.389,295.629,170.187,298.701,163.745z"/>
	<path fill="#1B2F42" d="M226.814,284.875c9.393-3.175,18.365-6.208,27.389-9.259C247.408,285.023,237.418,285.337,226.814,284.875z
		"/>
	<path fill="#1B2F42" d="M396.609,138.132c2.414,0.284,4.736,0.561,8.471,0.999c-2.193,0.944-3.211,1.381-3.564,1.537
		c-0.494,6.219-0.959,12.143-1.43,18.069c-0.326-0.063-0.654-0.127-0.982-0.191C398.291,151.911,397.482,145.273,396.609,138.132z"
		/>
	<path fill="#1B2F42" d="M187.041,221.56c-4.752-3.983-9.508-7.969-14.797-12.402c5.707-1.931,10.152-3.435,14.598-4.934
		c0.111,0.183,0.221,0.365,0.332,0.55c-2.809,1.591-5.617,3.184-9.697,5.496c3.646,3.484,7.133,6.815,10.613,10.146
		C187.742,220.799,187.393,221.179,187.041,221.56z"/>
</g>
</svg>
