<?xml version="1.0" encoding="utf-8"?>
<!-- Generator: Adobe Illustrator 16.0.0, SVG Export Plug-In . SVG Version: 6.00 Build 0)  -->
<!DOCTYPE svg PUBLIC "-//W3C//DTD SVG 1.1//EN" "http://www.w3.org/Graphics/SVG/1.1/DTD/svg11.dtd">
<svg version="1.1" id="Layer_1" xmlns="http://www.w3.org/2000/svg" xmlns:xlink="http://www.w3.org/1999/xlink" x="0px" y="0px"
	 width="460.417px" height="430.897px" viewBox="0 0 460.417 430.897" enable-background="new 0 0 460.417 430.897"
	 xml:space="preserve">
<g opacity="0.8">
	<path fill-rule="evenodd" clip-rule="evenodd" fill="#1B2F42" d="M240.614,82.039c46.499,2.074,81.274,23.039,103.125,64.55
		c5.411,10.279,8.691,21.355,10.443,32.852c3.644,23.896,0.172,46.747-10.451,68.436c-8.557,17.471-20.719,31.986-36.613,43.278
		c-1.383,0.982-1.886,2.108-2.099,3.701c-1.562,11.681-3.148,23.358-4.861,35.018c-0.329,2.239-1.749,4.389-1.757,6.584
		c-0.008,2.128,1.378,4.222,1.75,6.401c0.584,3.431,0.24,6.856-0.803,10.214c-0.247,0.794-0.267,1.789-0.025,2.579
		c1.431,4.654,1.429,9.268,0.028,13.925c-0.241,0.799-0.287,1.794-0.044,2.579c3.93,12.711-3.155,25.675-16.001,29.027
		c-1.349,0.352-1.752,0.909-1.973,2.237c-0.935,5.625-3.781,10.12-8.422,13.471c-19.2,13.862-45.66,13.886-64.893,0.053
		c-4.813-3.461-7.692-8.118-8.57-13.971c-0.149-0.994-0.49-1.396-1.486-1.66c-13.364-3.542-20.368-16.234-16.342-29.45
		c0.192-0.631,0.172-1.429-0.03-2.057c-1.526-4.764-1.51-9.498-0.04-14.272c0.227-0.737,0.215-1.669-0.013-2.41
		c-1.605-5.226-1.411-10.354,0.495-15.471c0.278-0.745,0.192-1.699,0.045-2.515c-0.831-4.626-1.879-9.216-2.577-13.86
		c-1.365-9.084-2.511-18.202-3.862-27.288c-0.136-0.917-0.87-1.979-1.643-2.533c-12.185-8.75-22.369-19.398-30.39-32.063
		c-13.335-21.057-19.622-44.059-18.121-68.967c3.171-52.632,41.352-95.242,91.25-105.801
		C224.568,82.968,232.499,82.156,240.614,82.039z M277.519,326.581c0.12-0.333,0.211-0.495,0.235-0.665
		c2.081-14.966,4.167-29.932,6.218-44.902c0.205-1.498,0.599-2.554,2.111-3.416c34.104-19.448,52.675-58.156,45.233-96.345
		c-7.09-36.381-28.851-60.503-64.032-72.275c-10.523-3.521-21.447-4.55-32.529-3.827c-9.956,0.65-19.563,2.73-28.845,6.465
		c-39.633,15.947-63.515,57.414-56.796,99.573c4.683,29.383,20.316,51.527,45.946,66.604c1.047,0.616,1.577,1.297,1.737,2.48
		c1.591,11.739,3.214,23.473,4.839,35.208c0.511,3.689,1.056,7.377,1.583,11.05c5.963,0,11.721,0,17.575,0
		c-0.085-1.007-0.189-1.842-0.221-2.679c-0.595-15.654-1.146-31.31-1.8-46.96c-0.138-3.294-0.115-6.742-1.099-9.82
		c-2.221-6.948-5.032-13.708-7.59-20.55c-4.57-12.222-9.133-24.445-13.693-36.67c-1.316-3.53,0.892-6.998,4.533-7.148
		c2.439-0.1,4.252,1.217,5.272,3.894c1.22,3.202,2.406,6.417,3.602,9.615c1.979-0.639,2.419-1.131,2.692-2.877
		c0.316-2.016,1.427-3.155,3.09-3.169c1.656-0.015,2.804,1.136,3.116,3.121c0.313,1.995,1.45,3.084,3.179,3.051
		c1.677-0.032,2.708-1.062,3.008-3c0.305-1.98,1.458-3.158,3.104-3.173s2.761,1.1,3.119,3.122c0.361,2.039,1.453,3.085,3.182,3.053
		c1.659-0.032,2.652-1.024,3.01-3.009c0.366-2.031,1.471-3.156,3.111-3.168c1.643-0.012,2.776,1.118,3.14,3.132
		c0.374,2.061,1.438,3.089,3.162,3.051c1.636-0.037,2.696-1.091,3.038-3.019c0.364-2.056,1.431-3.15,3.082-3.159
		c1.697-0.009,2.804,1.158,3.15,3.317c0.286,1.782,1.349,2.806,2.962,2.854c1.667,0.049,2.884-1.027,3.202-2.832
		c0.393-2.232,1.41-3.33,3.093-3.338c1.708-0.008,2.772,1.112,3.133,3.313c0.248,1.51,1.008,2.493,2.687,2.716
		c1.287-3.408,2.497-6.756,3.813-10.061c1.165-2.922,4.045-4.177,6.796-3.074c2.719,1.09,3.866,3.986,2.764,6.931
		c-7.051,18.834-14.121,37.661-21.109,56.518c-0.636,1.715-0.96,3.62-1.042,5.453c-0.531,11.842-0.961,23.688-1.411,35.532
		c-0.241,6.322-0.457,12.646-0.688,19.085C265.982,326.581,271.701,326.581,277.519,326.581z M215.648,220.33
		c-1.229,0.702-2.366,1.352-3.552,2.03c0.993,2.653,1.961,5.251,2.935,7.848c3.624,9.656,7.287,19.297,10.849,28.976
		c1.12,3.042,2.659,6.149,2.825,9.288c0.876,16.604,1.373,33.229,2.008,49.848c0.106,2.754,0.252,5.506,0.379,8.27
		c6.31,0,12.441,0,18.906,0c0-2.006-0.063-3.923,0.01-5.836c0.663-17.403,1.337-34.807,2.054-52.208
		c0.049-1.182,0.321-2.399,0.732-3.512c3.264-8.835,6.587-17.649,9.893-26.469c2.029-5.414,4.061-10.826,6.083-16.219
		c-1.285-0.722-2.427-1.363-3.591-2.017c-4.108,3.062-8.23,3.016-12.347-0.048c-4.183,3.173-8.367,3.022-12.45,0.016
		c-4.371,3.03-6.941,3.025-12.481,0.05C223.562,223.381,220.289,223.387,215.648,220.33z M203.425,385.397
		c0.234-0.037,0.775-0.088,1.303-0.205c24.638-5.471,49.276-10.94,73.91-16.432c3.719-0.828,5.791-3.883,5.072-7.322
		c-0.749-3.577-3.892-5.578-7.661-4.746c-19.456,4.295-38.905,8.624-58.355,12.939c-5.246,1.163-10.501,2.292-15.738,3.497
		c-3.208,0.737-5.29,3.617-4.936,6.652C197.39,382.972,199.979,385.353,203.425,385.397z M203.576,368.808
		c0.294-0.048,1.016-0.125,1.72-0.28c15.089-3.34,30.176-6.687,45.264-10.035c9.251-2.053,18.501-4.119,27.757-6.161
		c2.11-0.466,3.863-1.417,4.848-3.421c1.146-2.332,0.927-4.597-0.667-6.638c-1.771-2.265-4.154-2.685-6.851-2.083
		c-18.443,4.104-36.892,8.191-55.335,12.294c-6.246,1.39-12.503,2.737-18.723,4.234c-3.103,0.748-4.995,3.746-4.535,6.716
		C197.543,366.604,200.019,368.786,203.576,368.808z M240.44,410.779c8.477-0.05,16.128-2.66,23.057-7.474
		c1.747-1.215,2.261-3.832,1.159-5.471c-1.417-2.106-3.748-2.678-5.823-1.367c-3.474,2.194-7.019,4.169-11.103,5.083
		c-5.525,1.237-11.031,1.399-16.357-0.585c-3.242-1.207-6.297-2.943-9.375-4.559c-2.045-1.074-4.561-0.614-5.778,1.265
		c-1.083,1.67-0.619,4.387,1.022,5.545C224.193,408.122,231.907,410.709,240.44,410.779z M224.637,385.038
		c-0.008,0.093-0.015,0.186-0.022,0.278c0.114,0.027,0.228,0.076,0.341,0.076c17.591,0.005,35.182,0.04,52.771-0.067
		c1.375-0.009,2.942-0.765,4.074-1.626c2.171-1.654,2.628-4.789,1.404-7.247c-1.288-2.584-3.616-3.643-6.622-2.976
		c-11.61,2.576-23.219,5.16-34.828,7.742C236.049,382.489,230.344,383.765,224.637,385.038z M255.92,340.327
		c0.015-0.109,0.03-0.219,0.045-0.328c-0.413-0.021-0.825-0.064-1.238-0.064c-17.042-0.005-34.085-0.007-51.126-0.004
		c-0.482,0-0.971,0.014-1.446,0.083c-3.341,0.491-5.69,3.847-5.037,7.178c0.692,3.532,3.574,5.419,7.053,4.638
		c4.063-0.911,8.131-1.805,12.195-2.709C229.551,346.19,242.735,343.259,255.92,340.327z"/>
</g>
<g>
	
		<line fill="none" stroke="#495968" stroke-width="15" stroke-linecap="round" stroke-miterlimit="10" x1="119.177" y1="123.462" x2="73.303" y2="85.809"/>
	
		<line fill="none" stroke="#495968" stroke-width="15" stroke-linecap="round" stroke-miterlimit="10" x1="191.135" y1="67.796" x2="173.843" y2="11.141"/>
	
		<line fill="none" stroke="#495968" stroke-width="15" stroke-linecap="round" stroke-miterlimit="10" x1="285.626" y1="67.354" x2="304.118" y2="11.078"/>
	
		<line fill="none" stroke="#495968" stroke-width="15" stroke-linecap="round" stroke-miterlimit="10" x1="358.083" y1="122.333" x2="404.75" y2="85.666"/>
</g>
</svg>
