<?xml version="1.0" encoding="utf-8"?>
<!-- Generator: Adobe Illustrator 16.0.0, SVG Export Plug-In . SVG Version: 6.00 Build 0)  -->
<!DOCTYPE svg PUBLIC "-//W3C//DTD SVG 1.1//EN" "http://www.w3.org/Graphics/SVG/1.1/DTD/svg11.dtd">
<svg version="1.1" id="Layer_1" xmlns="http://www.w3.org/2000/svg" xmlns:xlink="http://www.w3.org/1999/xlink" x="0px" y="0px"
	 width="368px" height="520px" viewBox="0 0 368 520" enable-background="new 0 0 368 520" xml:space="preserve">
<g>
	<path fill="#1B2F42" d="M354,269.359c0,17.05-11.831,37.975-26.597,46.5l-115.682,66.86c-14.766,8.524-38.865,8.524-53.631,0
		l-116.025-66.86C27.3,307.334,15,286.409,15,269.359V135.641c0-17.05,12.331-37.975,27.097-46.5l115.932-66.86
		c14.766-8.525,38.99-8.525,53.756,0l115.588,66.86c14.766,8.525,26.628,29.45,26.628,46.5V269.359z"/>
</g>
<path fill="none" stroke="#FFFFFF" stroke-width="14" stroke-miterlimit="10" d="M221,197"/>
<path fill="none" stroke="#FFFFFF" stroke-width="14" stroke-miterlimit="10" d="M266,197"/>
<path fill-rule="evenodd" clip-rule="evenodd" fill="#FFFFFF" d="M301.248,449.03c-4.899-21.948-25.385-36.47-47.93-33.458
	c-28.648,3.826-57.38,6.012-85.965,0.877c-13.631-2.449-27.795-5.569-39.941-11.83c-20.613-10.627-26.125-30.46-17.551-52.164
	c5.281-13.359,13.892-24.476,24.196-34.062c14.341-13.343,24.658-29.217,32.464-46.934c0.82-1.862,1.792-4.172,1.383-5.976
	c-2.27-9.968-4.264-20.084-7.688-29.673c-2.919-8.175-13.681-13.317-21.523-4.771c-8.485,9.246-17.252,18.265-25.201,27.952
	c-5.574,6.791-12.65,9.633-20.937,11.049c12.32-4.356,20.272-13.099,26.137-25.952c-8.73,2.747-16.606,5.226-24.719,7.778
	c8.143-9.873,24.236-6.975,30.761-20.124c-8.402-0.384-15.896-0.26-22.556,5.371c-6.948,5.878-14.63,1.507-22.052,0.73
	c9.171-0.544,18.213,0.154,25.889-7.319c2.956-2.879,9.235-3.33,13.958-3.209c10.617,0.269,17.971-5.103,25.039-12.013
	c-5.067-4.026-9.895-6.104-16.308-3.472c-8.265,3.394-16.187,0.446-23.55-3.355c-9.179-4.74-18.035-8.184-29.081-8.131
	c-7.697,0.035-15.423-6.31-23.138-9.803c0.396-0.854,0.791-1.71,1.184-2.566c5.018,2.418,9.99,4.938,15.07,7.212
	c2.516,1.126,5.473,2.968,7.814,2.482c11.738-2.433,21.689,2.071,31.379,7.392c10.984,6.031,20.782,2.113,30.572-2.846
	c0.867-0.442,1.325-1.694,2.647-3.484c-20.933-3.575-41.595-5.279-59.605-16.623c4.636,1.344,9.239,2.817,13.916,3.996
	c4.741,1.196,9.524,2.314,14.349,3.078c5.053,0.801,10.178,1.142,15.791,1.738c-4.952-12.275-15.094-16.29-26.561-19.11
	c9.911-1.854,19.799,1.316,25.41,9.209c5.411,7.607,13.389,9.986,21.451,12.06c7.289,1.875,11.346-2.939,8.392-9.988
	c-2.399-5.72-5.93-10.378-12.76-12.883c-13.94-5.107-27.375-11.601-40.97-17.633c-1.35-0.598-2.365-1.947-2.902-2.408
	c13.94,5.028,28.506,10.284,43.506,15.696c-1.395-7.825-4.354-11.042-10.896-16.717c-5.76-4.998-10.479-11.194-15.66-16.862
	c0.45-0.408,0.9-0.817,1.35-1.226c6.313,6.057,12.627,12.112,18.938,18.168c1.99-10.229-4.612-15.413-8.932-21.932
	c6.127,3.097,11.825,6.545,13.362,14.165c0.879,4.349,1.811,8.695,2.931,12.986c3.092,11.841,14.661,22.193,29.559,13.298
	c-18.489-20.279-26.474-49.712-55.89-59.93c9.946,0.487,26.354,11.363,33.391,21.241c7.815,10.976,15.765,21.853,23.655,32.772
	c0.97-0.271,1.938-0.543,2.908-0.813c-0.239-4.851,0.926-10.376-1.014-14.411c-3.87-8.05-8.393-16.311-14.562-22.605
	c-8.909-9.094-17.486-17.916-21.192-31.393c6.353,8.8,12.194,16.89,18.365,25.437c1.849-13.373,3.486-25.223,5.125-37.073
	c0.528,0.023,1.058,0.047,1.586,0.071c-0.502,6.257-0.421,12.629-1.647,18.741c-1.662,8.278-0.902,15.507,4.286,22.526
	c4.569,6.18,8.548,12.871,12.096,19.697c2.088,4.016,4.179,8.829,3.872,13.113c-0.526,7.409,2.546,10.786,11.036,12.775
	c6.748-9.304,14.151-19.116,21.024-29.286c1.556-2.302,1.868-5.881,1.715-8.819c-0.653-12.577-1.569-25.145-2.672-37.69
	c-0.313-3.569-1.573-7.053-2.399-10.576c0.785-0.152,1.571-0.306,2.355-0.46c2.101,11.689,4.202,23.379,6.436,35.792
	c2.813-3.678,5.351-6.993,7.886-10.308c0.368,0.238,0.732,0.478,1.101,0.717c-1.698,3.218-3.935,6.272-4.957,9.693
	c-1.358,4.537-1.746,9.362-2.585,14.059c-0.871,4.872-1.782,9.732-2.76,15.063c3.389-2.299,6.66-4.839,10.23-6.849
	c3.586-2.018,7.576-3.31,11.197-5.273c3.775-2.052,7.321-4.527,10.897-6.772c-0.741,4.684-4.059,7.559-8.905,9.326
	c-13.264,4.841-23.461,14.096-33.069,23.915c-4.615,4.717-3.638,11.823,1.173,17.035c5.621,6.09,11.469,7.366,17.363,3.835
	c2.202-1.32,4.317-3.001,6.712-3.745c11.552-3.585,18.761-11.834,24.331-21.958c5.468-9.934,14.945-14.723,24.859-19.148
	c-13.233,7.245-22.135,18.167-28.601,33.459c9.761-3.611,18.382-6.801,28.128-10.407c-3.972,2.789-7.066,5.688-10.721,7.376
	c-7.838,3.621-16.109,6.304-23.925,9.969c-5.89,2.76-11.544,6.157-16.9,9.855c-2.326,1.606-4.17,4.455-5.304,7.134
	c-2.809,6.626-0.257,11.006,6.92,10.688c8.355-0.37,16.645-2.164,24.972-3.286c2.771-0.373,5.608-1.031,8.341-0.773
	c8.515,0.804,15.42-2.099,21.729-7.694c9.666-8.575,20.908-7.054,32.207-3.517c-2.603-0.131-5.205-0.244-7.808-0.396
	c-8.983-0.519-16.53,2.122-24.052,7.57c-6.653,4.818-15.146,7.099-23.408,10.757c9.854,6.101,20.559,12.727,31.262,19.353
	c-0.145,0.357-0.291,0.714-0.436,1.07c-8.639-4.315-17.974-7.646-25.758-13.162c-13.403-9.502-26.135-3.206-38.719,0.379
	c-6.73,1.92-7.649,9.283-2.252,14.08c5.327,4.735,11.532,8.645,17.788,12.132c6.914,3.853,14.48,6.526,21.448,10.297
	c3.248,1.755,5.751,4.888,9.801,8.465c-10.049-5.233-18.44-9.604-26.831-13.975c-0.531,0.595-1.062,1.19-1.593,1.786
	c3.396,6.202,6.795,12.404,10.328,18.857c-11.721-5.733-12.058-24.262-27.55-25.975c-1.144,17.728-2.253,34.93-3.362,52.13
	c-0.447-0.015-0.894-0.03-1.339-0.045c0-9.967,0.109-19.936-0.043-29.901c-0.092-6.021,0.048-12.158-1.063-18.028
	c-1.516-8.018-6.612-10.577-14.552-8.024c-12.723,4.091-19.489,14.436-24.133,25.708c-7.104,17.246-14.104,34.206-30.201,45.362
	c-6.527,4.523-13.223,8.912-19.211,14.09c-10.885,9.413-20.015,20.381-25.166,34.049c-6.953,18.447-1.247,34.471,15.67,44.538
	c11.458,6.818,23.961,10.772,37.236,11.216c22.22,0.741,44.46,0.957,66.693,1.13c4.629,0.035,9.356-0.677,13.885-1.716
	c29.691-6.821,47.606,10.99,56.976,30.83c1.062,2.245,1.476,4.796,2.188,7.206C304.992,449.03,303.121,449.03,301.248,449.03z"/>
<g>
	<path fill="#1B2F42" d="M143.133,506.033h-7.792l-53.703-80.912l-0.39,0.064v80.848h-7.793v-94.549h7.793l53.703,80.717l0.39-0.064
		v-80.652h7.792V506.033z"/>
	<path fill="#1B2F42" d="M229.098,476.486l0.13,0.391c0.172,9.264-2.857,16.668-9.092,22.209
		c-6.233,5.541-14.416,8.311-24.546,8.311c-10.521,0-19.006-3.799-25.456-11.396c-6.451-7.598-9.676-17.436-9.676-29.514v-15.391
		c0-12.033,3.225-21.871,9.676-29.514c6.45-7.641,14.936-11.461,25.456-11.461c10.26,0,18.475,2.705,24.644,8.117
		s9.166,12.857,8.994,22.338l-0.13,0.391h-7.273c0-7.619-2.327-13.561-6.98-17.826c-4.654-4.264-11.072-6.396-19.254-6.396
		c-8.27,0-14.903,3.205-19.903,9.611c-5,6.408-7.501,14.611-7.501,24.611v15.52c0,10.131,2.501,18.389,7.501,24.773
		c5,6.387,11.634,9.578,19.903,9.578c8.182,0,14.6-2.078,19.254-6.232c4.653-4.156,6.98-10.195,6.98-18.119H229.098z"/>
	<path fill="#1B2F42" d="M299.217,483.045c0-4.848-1.927-8.852-5.779-12.012c-3.854-3.16-10.39-6.127-19.61-8.896
		c-10.088-2.771-17.761-6.223-23.021-10.357s-7.891-9.752-7.891-16.852c0-7.23,2.944-13.172,8.832-17.826
		c5.887-4.652,13.398-6.98,22.533-6.98c9.61,0,17.338,2.629,23.183,7.891c5.845,5.26,8.68,11.938,8.507,20.033l-0.13,0.389h-7.272
		c0-6.234-2.263-11.406-6.786-15.52c-4.524-4.113-10.357-6.17-17.501-6.17c-7.36,0-13.129,1.744-17.306,5.229
		c-4.179,3.484-6.267,7.76-6.267,12.824c0,4.807,1.894,8.756,5.682,11.852s10.466,5.984,20.033,8.67
		c9.957,2.9,17.555,6.471,22.793,10.713c5.238,4.244,7.857,9.871,7.857,16.885c0,7.359-3.063,13.279-9.188,17.76
		s-13.843,6.721-23.15,6.721s-17.425-2.369-24.352-7.109s-10.282-11.656-10.064-20.748l0.13-0.389h7.208
		c0,7.316,2.748,12.76,8.247,16.33c5.497,3.572,11.774,5.357,18.831,5.357c7.229,0,13.118-1.654,17.663-4.967
		C296.944,492.559,299.217,488.285,299.217,483.045z"/>
</g>
</svg>
