<?xml version="1.0" encoding="utf-8"?>
<!-- Generator: Adobe Illustrator 16.0.0, SVG Export Plug-In . SVG Version: 6.00 Build 0)  -->
<!DOCTYPE svg PUBLIC "-//W3C//DTD SVG 1.1//EN" "http://www.w3.org/Graphics/SVG/1.1/DTD/svg11.dtd">
<svg version="1.1" id="Layer_1" xmlns="http://www.w3.org/2000/svg" xmlns:xlink="http://www.w3.org/1999/xlink" x="0px" y="0px"
	 width="460.417px" height="333.333px" viewBox="0 0 460.417 333.333" enable-background="new 0 0 460.417 333.333"
	 xml:space="preserve">
<g opacity="0.8">
	<path fill-rule="evenodd" clip-rule="evenodd" fill="#1B2F42" d="M160.845,39.143c0.009-9.192,0.018-18.387,0.027-27.578
		c63.849,0,127.697,0,191.546,0c0,67.268,0,134.537,0,202.012c-63.842,0-127.422,0-191.359,0c0-7.747,0-15.441,0-23.376
		c-1.902-0.285-3.493-0.546-5.089-0.761c-24.233-3.271-45.458-13.205-63.843-29.182C72.373,143.095,58.054,122.02,48.025,97.94
		c-0.3-0.722-0.55-1.465-0.903-2.413c1.366-1.266,2.684-2.558,4.075-3.766c22.564-19.61,47.344-35.546,75.703-45.507
		c9.912-3.482,20.097-5.854,30.543-7.045c1.132-0.13,2.287-0.073,3.431-0.103c0.004,4.885,0.009,9.771,0.013,14.655
		C126.87,56.741,99.64,72.136,78.316,98.377c0.465,1.369,0.758,2.326,1.112,3.26c3.81,10.033,8.703,19.514,14.747,28.379
		c16.225,23.794,37.393,40.17,66.705,44.253c0.076,5.193,0.152,10.387,0.229,15.639c0.993,0.113,1.626,0.199,2.261,0.257
		c11.717,1.059,23.371,0.185,34.965-1.43c29.778-4.145,58.539-12.104,86.317-23.572c14.824-6.119,29.113-13.264,41.93-23.057
		c0.835-0.638,1.624-1.337,2.767-2.283c-11.083-8.145-23.546-13.328-34.744-20.773c-3.485,2.921-6.813,5.75-10.185,8.526
		c-16.046,13.218-32.794,25.387-51.799,34.099c-22.814,10.458-46.634,15.33-71.774,12.624c0.001-5.608,0.003-11.218,0.005-16.826
		c0.64,0.074,1.282,0.131,1.919,0.226c6.914,1.027,13.836,1.256,20.795,0.408c13.233-1.614,25.463-6.211,37.069-12.553
		c22.945-12.538,42.216-29.568,59.462-49.035c0.272-0.308,0.453-0.694,0.718-1.109c-0.496-0.623-0.893-1.222-1.385-1.728
		c-5.247-5.395-10.213-11.104-15.817-16.101c-24.17-21.549-51.668-36.082-84.527-38.595
		C173.045,38.524,166.927,39.064,160.845,39.143z"/>
	<path fill-rule="evenodd" clip-rule="evenodd" fill="#1B2F42" d="M223.84,325.813c0-25.364,0-50.503,0-75.899
		c0.776-0.094,1.523-0.269,2.27-0.263c12.261,0.084,24.527,0.005,36.779,0.394c4.458,0.141,9.017,0.957,13.293,2.25
		c10.323,3.12,16.578,10.43,19.362,20.691c2.977,10.972,2.855,21.996-0.355,32.901c-3.251,11.036-10.93,17.192-22.096,19.074
		c-3.518,0.593-7.124,0.879-10.693,0.914c-12.19,0.121-24.382,0.069-36.574,0.075C225.26,325.95,224.695,325.873,223.84,325.813z
		 M245.499,266.665c0,14.3,0,28.381,0,42.727c6.203-0.191,12.292,0.632,18.246-1.247c6.123-1.932,10.193-5.973,11.472-12.221
		c0.78-3.809,1.05-7.841,0.789-11.723c-0.65-9.649-6.023-15.375-15.468-17.13c-1.125-0.208-2.275-0.375-3.416-0.389
		C253.28,266.635,249.436,266.665,245.499,266.665z"/>
	<path fill-rule="evenodd" clip-rule="evenodd" fill="#1B2F42" d="M97.089,325.824c-7.122,0-13.972,0-21.055,0
		c-0.051-0.999-0.137-1.9-0.138-2.802c-0.01-10.257,0.09-20.513-0.057-30.766c-0.057-3.996-0.329-8.049-1.085-11.963
		c-1.475-7.625-5.218-11.218-12.914-11.827c-6.26-0.496-12.59-0.102-19.278-0.102c0,19.109,0,38.191,0,57.429
		c-7.516,0-14.645,0-21.952,0c0-25.328,0-50.595,0-76.084c0.723-0.055,1.412-0.153,2.102-0.154c13.052,0,26.106-0.12,39.155,0.09
		c4.411,0.071,8.882,0.644,13.198,1.58c12.248,2.657,19.148,10.593,21.25,22.772c0.57,3.304,0.824,6.698,0.849,10.054
		c0.095,13.05,0.041,26.104,0.035,39.155C97.199,323.982,97.136,324.758,97.089,325.824z"/>
	<path fill-rule="evenodd" clip-rule="evenodd" fill="#1B2F42" d="M426.565,325.829c-8.062,0-15.567,0-23.275,0
		c-1.507-4.411-3.003-8.793-4.507-13.2c-11.769,0-23.371,0-35.171,0c-1.562,4.355-3.129,8.723-4.712,13.136
		c-7.104,0-14.08,0-21.474,0c10.042-25.455,19.97-50.616,29.951-75.915c9.664,0,19.229,0,28.987,0
		C406.392,275.081,416.412,300.286,426.565,325.829z M381.664,264.793c-0.147,0.021-0.294,0.042-0.441,0.064
		c-4.249,11.29-8.498,22.58-12.799,34.009c8.681,0,17.058,0,25.689,0C389.9,287.333,385.783,276.063,381.664,264.793z"/>
	<path fill-rule="evenodd" clip-rule="evenodd" fill="#1B2F42" d="M123.588,249.899c5.615,19.695,11.189,39.25,16.764,58.804
		c0.13,0.025,0.26,0.051,0.39,0.075c5.843-19.621,11.686-39.244,17.561-58.975c7.36,0,14.562,0,22.237,0
		c-8.277,25.47-16.473,50.689-24.697,76c-10.453,0-20.743,0-31.278,0c-8.123-25.186-16.251-50.387-24.481-75.904
		C108.005,249.899,115.667,249.899,123.588,249.899z"/>
	<path fill-rule="evenodd" clip-rule="evenodd" fill="#1B2F42" d="M328.876,325.794c-7.226,0-14.284,0-21.517,0
		c0-25.361,0-50.56,0-75.958c7.195,0,14.248,0,21.517,0C328.876,275.187,328.876,300.445,328.876,325.794z"/>
	<path fill-rule="evenodd" clip-rule="evenodd" fill="#1B2F42" d="M210.788,325.815c-7.154,0-14.15,0-21.368,0
		c0-25.292,0-50.539,0-75.982c7.087,0,14.136,0,21.368,0C210.788,275.141,210.788,300.332,210.788,325.815z"/>
	<path fill-rule="evenodd" clip-rule="evenodd" fill="#1B2F42" d="M451.335,318.954c0.521,4.523-1.445,7.575-5.444,9.294
		c-4.299,1.849-8.478,1.376-12.032-1.743c-3.301-2.896-3.908-6.709-2.715-10.793c1.109-3.794,4.659-6.473,8.794-6.791
		c4.48-0.346,8.311,0.964,10.532,5.067C451.229,315.39,451.074,317.284,451.335,318.954z M441.194,311.567
		c-4.188,0.011-7.217,3.083-7.262,7.369c-0.047,4.342,3.053,7.589,7.28,7.621c4.195,0.032,7.224-3.186,7.188-7.635
		C448.368,314.564,445.421,311.558,441.194,311.567z"/>
	<path fill-rule="evenodd" clip-rule="evenodd" fill="#1B2F42" d="M160.853,71.838c0.001-6.034,0.002-12.069,0.002-18.104
		c22.231-2.104,42.066,4.477,60.3,16.734c9.458,6.357,17.868,13.917,25.281,22.577c0.875,1.021,1.685,2.098,2.65,3.308
		c-1.733,2.179-3.33,4.283-5.027,6.304c-11.239,13.372-23.707,25.365-38.994,34.09c-9.745,5.562-20.096,9.244-31.516,8.617
		c-4.046-0.224-8.056-1.109-12.446-1.745c-0.071,4.525-0.146,9.204-0.22,13.883c-30.863-6.394-48.505-26.909-58.903-55.157
		c-0.17-0.463-0.242-0.963-0.901-2.064c0.945-0.654,1.979-1.213,2.823-1.979c15.717-14.29,33.964-23.225,55.081-26.124
		c0.637-0.088,1.265-0.242,1.897-0.367c0.001,5.319,0.002,10.638,0.004,15.956c-14.432-1.179-25.012,5.991-34.396,15.526
		c1.966,14.813,22.405,38.125,34.435,39.252c0-0.867,0.001-1.71,0-2.552c-0.023-17.419-0.045-34.838-0.068-52.257
		c10.272,0.831,18.805,4.894,24.681,13.614c3.16,4.69,6.065,9.553,9.088,14.335c0.445,0.705,0.904,1.4,1.496,2.313
		c8.706-7.345,17.208-14.518,25.634-21.626c-0.189-0.448-0.229-0.591-0.305-0.708c-0.117-0.18-0.25-0.351-0.394-0.51
		c-13.576-14.884-30.045-23.63-50.551-23.719C167.289,71.421,164.07,71.696,160.853,71.838z"/>
	<path fill-rule="evenodd" clip-rule="evenodd" fill="#1B2F42" d="M439.916,320.417c-0.123,1.303-0.245,2.607-0.377,4.022
		c-0.84,0-1.521,0-2.416,0c0-3.599,0-7.119,0-11.093c2.274,0.135,4.488,0.055,6.595,0.496c0.861,0.181,1.806,1.371,2.149,2.31
		c0.562,1.547-0.05,2.426-2.119,3.985c0.717,1.294,1.455,2.624,2.382,4.299c-1.163,0.058-1.968,0.099-2.904,0.144
		c-0.91-1.457-1.797-2.882-2.686-4.305C440.331,320.322,440.125,320.37,439.916,320.417z M443.248,317.202
		c-0.038-0.375-0.074-0.749-0.111-1.123c-0.995-0.183-1.993-0.366-3.153-0.579c0,0.977,0,1.604,0,2.684
		C441.28,317.794,442.263,317.498,443.248,317.202z"/>
</g>
</svg>
